<svg xmlns="http://www.w3.org/2000/svg" viewBox="0 0 122.88 112.88" style="enable-background:new 0 0 122.88 112.88" xml:space="preserve"><path d="M14.29 0h94.3c7.86 0 14.29 6.43 14.29 14.29v84.3c0 7.86-6.43 14.29-14.29 14.29h-94.3C6.43 112.88 0 106.45 0 98.59v-84.3C0 6.43 6.43 0 14.29 0zm47.07 24.87c-7.69 4.45-12.87 12.77-12.87 22.3 0 14.22 11.53 25.75 25.75 25.75 6.75 0 12.9-2.6 17.49-6.85 2.28-2.11 4.89-.57 4.01 1.94-4.81 13.82-17.95 23.73-33.41 23.73-19.54 0-35.38-15.84-35.38-35.38 0-18.72 14.61-34.1 33.1-35.23 3.42-.2 4.3 2.01 1.31 3.74z" style="fill-rule:evenodd;clip-rule:evenodd"/></svg>