<svg xmlns="http://www.w3.org/2000/svg" viewBox="0 0 1000 1000"><path d="M435.43 14C146.69 53.54-46.11 337.07 24.7 617.84c38.62 154.18 152.95 282.3 303.45 340.23 291.19 112.49 616.1-83.68 657.78-396.94C1015.05 341.67 885.4 125.88 673.9 41.9 603.4 14 512.67 3.28 435.43 14zm76.02 26.06c13.49 12.57 28.2 49.96 40.46 101.15 6.74 29.43 18.39 95.94 16.86 97.47-2.45 2.76-88.28 4.29-112.49 2.45l-26.36-2.45 1.53-11.03c4.29-30.65 19.92-103.6 27.28-126.59 13.49-42.61 28.51-67.13 41.07-67.13 2.76 0 7.97 2.76 11.65 6.13zm-55.48 3.68c-21.76 48.43-33.72 89.81-44.44 155.1-3.37 19-6.44 35.25-7.36 35.86-2.14 2.45-64.06-9.81-96.86-19l-28.2-7.97 11.34-20.23c37.39-67.43 88.28-118.01 141-139.77 19.92-8.29 26.97-9.51 24.52-3.99zm110.95 3.67c39.24 15.94 78.78 48.43 110.65 91.04 17.78 23.91 39.85 61 39.85 66.82 0 5.21-54.56 19.62-111.26 29.43-13.49 2.15-11.96 4.9-19.01-39.85-2.76-18.7-9.2-49.35-14.1-68.66-7.66-29.43-12.57-43.22-29.42-82.45-2.45-5.52 3.07-4.6 23.29 3.67zm-209.34 18.7c-29.43 24.21-67.13 72.34-89.2 114.94-4.9 9.2-9.2 17.47-9.81 18.08-1.84 3.06-81.23-33.41-80-36.78 1.53-3.98 42.91-37.39 61.61-49.65 28.2-18.7 67.74-38.62 98.08-49.96 15.63-5.52 30.04-10.11 32.18-10.42 2.46 0-3.36 6.13-12.86 13.79zm300.69-4.29c32.18 11.34 71.11 30.96 101.15 50.88 22.07 14.71 61.61 46.9 61.92 50.27.31 3.37-78.47 38.62-80.62 36.17-.61-.61-4.9-8.89-9.5-18.08-20.23-39.85-59.46-90.42-89.2-114.94-9.5-7.66-15.63-13.79-14.1-13.79 1.84-.01 15.33 4.28 30.35 9.49zM181.94 193.93c10.42 5.21 29.43 13.79 42.3 19l23.3 9.5-11.65 30.65c-21.46 56.09-36.48 130.58-41.38 202.91l-2.15 31.57H33.28l2.15-23.91c7.36-82.15 33.72-157.86 77.55-223.76 16.86-25.14 42.61-55.79 46.9-55.79 1.53.02 11.64 4.31 22.06 9.83zm675.56 7.05c59.16 68.97 97.47 163.07 106.97 264.22l2.15 22.38H807.24l-3.37-43.83c-5.83-72.34-23.3-150.81-44.44-202.91l-7.66-18.08 26.67-11.03c14.4-6.13 33.41-14.71 41.69-19.31 8.58-4.29 16.86-7.97 19-8.28 1.82-.02 10.1 7.64 18.37 16.84zm-543.14 41.68c18.7 4.6 45.06 10.73 59.16 13.18 14.1 2.15 26.36 4.9 27.28 5.82.61.92 0 16.55-1.84 34.94-4.29 41.07-9.5 131.8-9.5 165.52v25.45H216.89l2.14-33.1c4.29-64.37 18.7-139.16 37.09-190.65 11.34-31.57 13.18-34.64 19.31-32.18 2.76 1.22 20.54 6.12 38.93 11.02zm426.67 15.33c19.62 51.19 34.64 128.12 39.54 198.01l2.15 31.57H611.08l-2.15-59.16c-1.22-32.18-3.98-82.76-6.74-112.19-4.9-57.63-4.6-58.54 10.73-58.54 9.5 0 73.26-14.41 95.02-21.46 9.5-3.07 18.7-5.21 20.23-4.9 1.82.31 7.34 12.26 12.86 26.67zm-167.67 8.89c0 .92 2.15 23.6 4.6 50.58 2.15 26.97 5.21 76.32 6.44 109.43l2.15 60.69H413.06l2.15-60.08c1.23-33.1 3.99-82.45 6.44-109.73 2.45-26.97 4.6-49.96 4.6-50.88s33.1-1.53 73.56-1.53c40.45-.01 73.55.6 73.55 1.52zM194.51 543.36c4.9 73.26 20.84 150.5 42.6 206.59l10.42 27.28-14.1 5.52c-7.66 3.07-27.59 11.96-44.44 19.92l-30.34 14.41-14.71-16.55C85.09 734.93 44.32 635.62 35.43 535.7l-2.15-23.6h159.08l2.15 31.26zm194.94-4.6c0 34.02 4.9 121.07 9.5 164.29 1.84 18.39 2.76 33.72 2.14 34.33-.61.61-19 4.91-40.77 9.2-22.07 3.98-50.88 11.04-64.06 15.02-13.49 4.29-25.44 7.05-26.67 6.13-4.29-2.45-21.76-54.87-30.65-91.65-10.42-43.83-16.86-86.13-19.92-131.19l-2.14-32.8h172.57v26.67zm194.95 32.18c-1.84 54.56-5.21 104.83-9.81 146.51l-1.84 16.86h-73.26c-40.15 0-73.26-.61-73.26-1.53s-2.15-23.91-4.6-50.88c-2.45-27.28-5.21-76.63-6.44-109.73l-2.15-60.08h173.5l-2.14 58.85zm196.17-27.58c-3.37 49.35-10.42 95.32-21.76 138.85-9.81 38.31-23.91 80.31-28.5 84.91-1.23 1.23-13.79-1.23-28.2-5.52-14.41-4.29-43.22-11.04-64.37-15.33-21.15-4.29-38.62-8.28-39.23-8.58-.31-.61 1.22-25.13 3.68-54.25 2.76-29.43 5.52-80 6.74-112.49l2.15-58.85h171.64l-2.15 31.26zm183.91-9.2c-5.82 61.61-22.99 125.06-47.2 172.87-15.63 31.26-44.75 75.1-62.53 94.71l-13.79 15.33-30.34-14.41c-16.86-7.97-36.78-16.86-44.75-19.92l-14.1-5.52 7.66-18.39c21.15-52.11 38.62-130.27 44.44-203.22l3.37-43.53h159.38l-2.14 22.08zM554.05 759.14l15.63 2.14-1.53 11.04c-7.97 57.62-28.51 138.24-41.38 164.29-7.66 15.32-20.54 29.12-26.97 29.12-12.57 0-27.59-24.52-41.07-67.13-7.36-22.99-22.99-95.63-27.28-126.59l-1.84-11.34 12.87-1.23c22.68-1.83 95.02-2.14 111.57-.3zm-147.74 11.04c.61 3.98 3.68 20.84 6.44 37.7 7.05 44.14 21.46 97.47 33.41 125.37 5.82 13.48 9.81 25.13 9.2 25.75-2.45 2.45-30.34-8.89-51.8-21.46-39.54-23.29-83.99-72.34-113.41-125.36l-11.03-20.23 29.73-8.58c25.44-7.05 79.08-18.7 91.96-19.62 2.13-.32 4.58 2.75 5.5 6.43zm240.31 2.76c38.32 7.66 70.81 17.47 70.81 21.46 0 5.82-22.07 42.91-39.85 66.82-31.88 42.6-71.42 75.1-110.65 91.03-26.66 11.04-27.59 10.12-16.25-13.49 13.18-27.28 26.67-76.01 34.94-126.59 3.68-22.68 7.35-42.91 7.97-45.06 1.23-4.29 4.6-3.98 53.03 5.83zm-378.85 44.44c19.31 39.23 59.77 91.65 89.81 116.17 9.5 7.66 15.63 13.79 14.1 13.79-1.84 0-15.33-4.29-30.35-9.5-32.18-11.34-71.11-30.96-101.15-50.88-23.91-15.94-61.92-46.9-61.92-50.88-.31-1.23 6.13-5.21 14.41-8.89 48.74-21.46 60.69-26.66 63.45-26.66 1.84-.32 7.05 7.35 11.65 16.85zm497.47-8.27c34.33 14.41 56.4 25.13 56.09 27.28-.31 3.99-40.16 35.86-64.98 52.11-13.79 9.2-35.56 21.77-48.12 28.2-21.46 10.73-73.26 30.65-80 30.65-1.84 0 5.52-7.36 16.25-16.55 30.96-26.05 73.87-82.46 89.5-117.7 3.07-7.05 6.74-12.87 7.97-12.87 1.22-.02 11.64 3.97 23.29 8.88z"/></svg>