<svg xmlns="http://www.w3.org/2000/svg" viewBox="0 0 1000 1000" xml:space="preserve"><path d="M650.6 793.8c-9.4 12.6-18.4 24.6-27.2 36 90.9 10.3 153.5 31.4 153.5 55.9 0 34.5-124 62.6-277 62.6s-277-28-277-62.6c0-24.5 62.6-45.7 153.5-55.9-8.8-11.4-17.9-23.4-27.2-36-100.5 17.6-168.9 52.1-168.9 91.9C180.4 943.3 323.5 990 500 990s319.6-46.7 319.6-104.3c0-39.8-68.4-74.3-169-91.9zm41.1-450.2C691.7 240 605.9 156 500 156s-191.7 84-191.7 187.7c0 103.6 85.8 187.7 191.7 187.7 105.9-.1 191.7-84.1 191.7-187.8zm-340.8 0c0-80.6 66.8-146 149.1-146s149.1 65.3 149.1 146c0 80.6-66.8 146-149.1 146s-149.1-65.4-149.1-146zm490 0C840.9 159.4 688.3 10 500 10c-188.3 0-340.9 149.4-340.9 333.6 0 184.3 340.9 583.8 340.9 583.8s340.9-399.5 340.9-583.8zM500 51.7c164.7 0 298.3 130.7 298.3 291.9S500 864.9 500 864.9 201.7 504.8 201.7 343.6c0-161.2 133.6-291.9 298.3-291.9z"/></svg>