<svg xmlns="http://www.w3.org/2000/svg" viewBox="0 0 1000 1000" xml:space="preserve"><path d="M793.7 990.2c-21.7 0-43.7-1.5-66.1-4.5-22.3-3-45-7.6-68-13.6-23-6.1-46.1-13.6-69.4-22.7-23.3-9.1-46.9-19.7-70.9-31.8-22-11.2-43.9-23.5-65.6-37.1-21.7-13.6-43.1-28.2-64.2-43.8s-41.8-32.2-62.2-49.8C307 769.2 287.2 751 268 732.2c-18.8-19.1-37-38.9-54.6-59.4-17.6-20.4-34.1-41.2-49.6-62.2-15.5-21.1-30-42.5-43.6-64.4s-25.9-43.6-37.1-65.3C71 457 60.4 433.3 51.3 409.8c-9.1-23.5-16.7-46.7-22.7-69.7-6.1-23-10.7-45.6-13.9-68S10 227.8 10 206c0-14 2.9-27.8 8.6-41.4 5.7-13.6 12.6-26.1 20.6-37.6 8-11.5 16.2-21.8 24.7-30.9s15.6-16.2 21.3-21.3c8-7.7 17.1-15.3 27.3-23 10.2-7.7 20.7-14.6 31.4-20.8s21.4-11.3 32.1-15.3c10.7-4 20.7-6 29.9-6 8.9 0 19 3.1 30.2 9.3s23.8 15.9 37.8 29c10.2 9.6 21.1 20.7 32.6 33.5s23.1 26.8 34.9 42.1c3.5 4.5 9.9 13 19.1 25.6 9.3 12.6 18.8 26.7 28.5 42.4 9.7 15.6 18.4 31.4 25.9 47.4s11.3 29.5 11.3 40.7c0 18.2-8.7 34.2-26.1 47.9-17.4 13.7-37.1 27.4-59.1 41.2-8.3 5.1-16.6 10.3-24.9 15.6-8.3 5.3-15.6 10.5-22 15.6-6.7 5.4-11.1 9.6-13.2 12.4-2.1 2.9-3.1 4.6-3.1 5.3 11.5 29 28.4 59 50.7 90 22.3 31 47.5 60.4 75.4 88.3s57.4 53.1 88.3 75.4c31 22.3 61 39.4 90 51.2.6-.3 2.4-1.4 5.3-3.4 2.9-1.9 7-6.2 12.4-12.9 5.1-6.4 10.3-13.7 15.6-22 5.3-8.3 10.6-16.8 16-25.4 13.4-22 27-41.7 40.7-59.1s29.8-26.1 48.4-26.1c11.2 0 24.7 3.7 40.7 11.3 16 7.5 31.7 16.1 47.2 25.9 15.5 9.7 29.5 19.2 42.1 28.5 12.6 9.3 21.3 15.6 26.1 19.1 15 11.8 29 23.5 41.9 34.9 12.9 11.5 24.2 22.5 33.8 33 12.8 14 22.3 26.6 28.5 37.6 6.2 11 9.3 21.1 9.3 30.4 0 9.3-2 19.2-6 29.9s-9.1 21.4-15.3 32.1c-6.2 10.7-13.2 21.1-20.8 31.4s-15.2 19.3-22.5 27.3c-5.1 5.7-12.2 12.8-21.3 21.3-9.1 8.5-19.5 16.8-31.1 24.9-11.6 8.1-24.3 15-37.8 20.6-13.8 5.5-27.6 8.3-41.7 8.3zM205.3 59.1c-6.7 0-18 4.1-34 12.4s-33.7 21.4-53.1 39.3c-18.2 16.9-32.6 33.9-43.1 51s-15.8 31.8-15.8 44.3c0 82.3 22.8 167 68.5 254 45.6 87 104 166.1 175.2 237.5 71.2 71.3 150.2 129.8 237 175.5 86.8 45.6 171.4 68.5 253.7 68.5 12.8 0 27.7-5.3 44.8-16s33.9-25.1 50.5-43.3c17.9-19.5 31-37.3 39.3-53.4 8.3-16.1 12.6-27.5 12.9-34.2-1-4.5-8.7-15.4-23.2-32.8s-39.5-39.9-75-67c-15-11.8-29.3-22.2-42.8-31.1-13.6-8.9-25.7-16.4-36.4-22.5-10.7-6.1-19.8-10.6-27.3-13.6s-12.8-4.7-16-5c-.3.3-1.9 1.4-4.8 3.4-2.9 1.9-7 6.4-12.4 13.4-4.8 6.1-9.7 13.1-14.8 21.1-5.1 8-10.2 16.1-15.3 24.4-13.7 22.3-27.6 42.4-41.7 60.1-14 17.7-30.5 26.6-49.3 26.6-3.2 0-6.2-.2-9.1-.7-2.9-.5-5.7-1.4-8.6-2.6-32.2-12.8-65.3-31.3-99.1-55.5a770.85 770.85 0 0 1-96.2-81.9c-30.3-30.3-57.5-62.3-81.6-96-24.1-33.7-42.7-66.6-55.8-98.9-2.9-7.7-3.5-17.3-1.9-29s10.1-24.5 25.4-38.5c8-7 17.3-14 28-21.1 10.7-7 21.5-13.9 32.3-20.6 8-4.8 16-9.7 23.9-14.8 8-5.1 15.2-10.1 21.5-14.8 7-5.7 11.5-10.1 13.4-12.9s2.9-4.5 2.9-4.8c0-3.2-1.6-8.5-4.8-16-3.2-7.5-7.8-16.6-13.9-27.3-6.1-10.7-13.6-22.7-22.5-36.1-8.9-13.4-19.1-27.8-30.6-43.1-27.4-35.1-49.8-60-67-74.7-17.4-15-28.4-22.7-33.2-23.3z"/></svg>