<svg xmlns="http://www.w3.org/2000/svg" width="256" height="256" xml:space="preserve"><g style="stroke:none;stroke-width:0;stroke-dasharray:none;stroke-linecap:butt;stroke-linejoin:miter;stroke-miterlimit:10;fill:none;fill-rule:nonzero;opacity:1"><path d="M58.921 90H31.079a2.092 2.092 0 0 1-2.092-2.092V2.092A2.092 2.092 0 0 1 31.079 0H58.92c1.155 0 2.092.936 2.092 2.092v85.817A2.09 2.09 0 0 1 58.921 90z" style="stroke:none;stroke-width:1;stroke-dasharray:none;stroke-linecap:butt;stroke-linejoin:miter;stroke-miterlimit:10;fill:#000;fill-rule:nonzero;opacity:1" transform="translate(1.937 1.937) scale(2.8014)"/><path d="M90 31.079V58.92a2.092 2.092 0 0 1-2.092 2.092H2.092A2.091 2.091 0 0 1 0 58.921V31.079c0-1.155.936-2.092 2.092-2.092h85.817A2.092 2.092 0 0 1 90 31.079z" style="stroke:none;stroke-width:1;stroke-dasharray:none;stroke-linecap:butt;stroke-linejoin:miter;stroke-miterlimit:10;fill:#000;fill-rule:nonzero;opacity:1" transform="translate(1.937 1.937) scale(2.8014)"/></g></svg>