<svg version="1.0" xmlns="http://www.w3.org/2000/svg" width="1077.333" height="341.333" viewBox="0 0 808 256"><path d="M4.4 9.7c4.2 9.5 10.8 24.1 49.9 111L72.4 161h17.2l11.4-23.8c6.3-13 15.8-32.7 21.1-43.7l9.8-20 1.5 3.5c.8 1.9 9.6 21.5 19.5 43.5l18 40 8.6.3 8.6.3 11.3-23.3c6.2-12.8 17.5-36.1 25.1-51.8 7.6-15.7 17.6-36.4 22.3-46C259.5 13.6 265 1.9 265 .9c0-.6-8.8-.8-21.2-.7l-21.2.3-17.3 38c-9.5 20.9-18.9 41.6-20.8 46l-3.7 8-4.2-10c-2.3-5.5-10.9-25.8-19.1-45-8.1-19.3-15.3-35.6-15.8-36.3-.7-.9-3.5-1.2-9.5-1l-8.4.3-17.2 38C97.1 59.4 87.8 80 85.8 84.3c-2 4.4-3.8 7.5-4.1 7-.4-.7-36.8-86-38.4-90.1C42.9.3 37.6 0 21.5 0H.1l4.3 9.7zM274.9 22.7C268.8 35.2 261.6 50 259 55.5c-2.6 5.5-14.8 30.7-27 56-20.5 42.5-63 139-63 143.1 0 .9 3-3.2 6.6-9.2 34.2-56.4 69.4-88 114.7-102.8 11.1-3.7 26.4-6.9 29.8-6.4 1.5.2 3.3 3.2 7.2 12.3l5.2 12 21.3.3 21.3.2-.6-2.1c-.4-1.2-2.9-6.8-5.5-12.4-2.7-5.7-4.6-10.6-4.3-10.9.3-.3 2.6-.2 5 .1 4.3.6 4.5.5 3.8-1.6-1-3.2-13.5-30.5-14.3-31.3-.4-.4-2.9-1-5.7-1.3-2.7-.4-5.1-.8-5.1-.9-.1 0-4.8-10.5-10.4-23.1-5.7-12.7-15.8-35.2-22.5-50L303.4.5l-8.7-.3-8.8-.3-11 22.8zm27 66.2c2.9 6.8 5 12.5 4.8 12.7-.2.3-4.9 1.5-10.3 2.9-5.5 1.3-12.5 3.3-15.6 4.3-3.2 1.1-5.8 1.5-5.8 1 0-.8 13.6-31.1 16.7-37.2l1.6-3 1.7 3.5c1 1.8 4.1 9 6.9 15.8zM320 .5c0 .7 3.1 7.7 40.8 91.5l30.8 68.5H409.3l38.4-79.4C468.8 37.4 486 1.3 486 .8c0-.4-9.6-.8-21.3-.8h-21.3l-20.2 44.7c-11.1 24.7-20.6 45.4-21 46.1-.5.7-7.1-13.6-17.2-37.5-9-21.4-17.8-42.1-19.6-46.1L362.1 0h-21c-11.6 0-21.1.2-21.1.5zM498 80.5V160h53.9c44.6 0 54-.2 54.4-1.4.4-1 .3-15.6-.2-27.4-.1-.9-7.6-1.2-34.1-1.2h-34l.2-18.8.3-18.7 19.8-.3L578 92V63l-19.7-.2-19.8-.3v-32l33.3-.3L605 30V1H498v79.5z"/><path d="M688 16.7c-1.9.3-6 1.1-9 2-3 .8-7.3 1.6-9.4 1.9-2.2.2-4.3.8-4.6 1.4-.4.6-1.5.8-2.6.4-1-.4-1.6-.4-1.2.1.7.8-10.6 6.7-12.9 6.8-.7 0-1.5.7-1.7 1.4-.3.8-2.5 2.3-4.8 3.3-2.4 1.1-3.9 2-3.4 2s.3.7-.4 1.5-1.6 1.2-2.1.9c-.5-.3-.9-.1-.9.5 0 .5-.9 1.3-2 1.6-1.1.3-2 1.1-2 1.7 0 .6-1.1 2.2-2.5 3.7-5.5 5.7-6.3 6.7-8.3 10.4-1.2 2.2-2.2 3.3-2.5 2.5-.3-.7-1.1.8-1.8 3.4-.7 2.7-1.7 4.8-2.2 4.8-.4 0-.5 1-.2 2.1.5 1.5.4 1.9-.5 1.4-.7-.4-1-.2-.9.6.1.8-.1 2.1-.4 2.9-.9 2.2-2.6 20.2-2 21.7.3.7 0 2.6-.5 4.3-.6 1.6-.7 3.2-.3 3.4.7.5 1.3 4.3 2.5 15.5.2 1.3 1 2.9 1.9 3.6.9.7 1.4 1.5 1 1.8-.9 1 1.8 3.8 3.1 3 .6-.3.8-.3.4.1-1 1.2 6.4 8.8 7.9 8.1.8-.2 1.1 0 .8.5-.3.6.2 1 1.2 1s2.8.6 3.9 1.4c1.1.8 5 1.7 8.7 1.9l6.6.5.5-3.1c.3-1.8.9-6.3 1.5-10.1s.8-7.3.5-7.7c-.5-.9 2.2-11.5 3.6-14.1.6-1 1-2.5 1-3.3 0-1 .5-1.3 1.2-.9.8.5.9.2.5-.9-.3-.9.1-2.3.9-3.2.9-.8 1.2-1.5.8-1.5-.4 0 .3-.9 1.5-1.9 1.3-1.1 1.7-2.1 1-2.3-.6-.2.6-2 2.7-3.9 2.2-2 4-4.2 4.2-5 .4-1.7 2.3-3 3.4-2.3.4.3.8-.1.9-.8 0-1.7 5.2-5.8 7.9-6.3 1.1-.2 2.6-.7 3.3-1.2 2-1.2 11.1-4.2 13-4.3 1 0 1.6-.4 1.3-.8-1.1-1.9 29.7-2.4 33.6-.5 1.3.6 4.2 1.6 6.6 2.2 2.7.8 4 1.6 3.6 2.3-.5.8-.1.9.9.5 1-.3 1.7-.2 1.7.3 0 .6.6 1 1.3 1 .7 0 2.7 1.5 4.4 3.2 1.7 1.8 4.7 4.6 6.7 6.2 2 1.6 3.4 3.1 3.2 3.4-.2.2.5 1.5 1.7 2.9 1.2 1.3 2.2 2.9 2.2 3.4s.7 1.4 1.5 1.9 1.2 1 .7 1c-.4 0 .4 1.8 1.8 4 1.4 2.3 2.3 4.5 2 5-.4.6-.2 1 .3 1s1.2 1.2 1.5 2.7c.3 1.6 1 4.8 1.6 7.3 1.3 5.7 1.3 19.1 0 25-.5 2.5-1.2 6-1.4 7.9-.3 1.9-.9 4-1.4 4.5-.5.6-1.1 2.7-1.5 4.8-.4 2-1.4 3.9-2.2 4.2-.9.3-1.4 1.3-1 2.1.3.8-.1 2.1-.9 2.9-.8.7-1.1 1.6-.8 2 .4.3 0 .6-.7.6s-1 .3-.7.7c.4.3-.2 1.2-1.3 2-1 .7-1.7 2-1.4 2.7.3.7-.9 2.5-2.6 4-1.7 1.4-2.9 2.6-2.5 2.6.3 0-1.1 1.8-3.1 4s-4.1 3.7-4.6 3.4c-1.2-.8-4.9 2.6-4.2 3.8.3.4.2.8-.3.6-1.1-.2-7 3.2-10.1 5.9-1.4 1.3-3.6 2.3-4.8 2.3-1.3 0-2.4.4-2.4 1 0 .5-1.2 1-2.7 1-1.6.1-3.9.7-5.3 1.5s-3.5 1.4-4.7 1.5c-1.3 0-2.3.4-2.3.8 0 .5-.6.9-1.2 1-.7.1-5.3.8-10.3 1.7-13.1 2.4-38.8 1-47.8-2.4-1.5-.6-4.1-1.2-5.7-1.3-1.7-.1-3-.6-3-1s-.6-.5-1.3-.2c-.8.3-2.7-.1-4.3-.7-1.6-.7-3.3-1.3-3.9-1.4-3-.4-6.5-1.8-6.5-2.6 0-.5-1.2-.9-2.7-.9-1.6 0-5-1.1-7.8-2.5-2.7-1.4-5.5-2.3-6.3-2-.8.3-1 0-.6-.6.4-.7 0-.9-1.4-.5-1.1.4-2.3.2-2.7-.4-1-1.6-7.9-4.7-10.3-4.5-1.2.1-1.8-.3-1.5-.8.4-.6 0-.8-1-.4-1 .3-1.7.2-1.7-.3 0-.9-2.1-1.7-6.2-2.5-1.3-.3-2.9-1.2-3.5-2.2-.7-.9-1.3-1.3-1.3-.9 0 .5-.6.4-1.2-.2-.7-.5-2.8-1.3-4.7-1.5-1.9-.3-3.7-.9-4-1.4-.9-1.3-6.5-3.7-8-3.4-.7.1-1-.2-.6-.8.3-.7-.2-1.1-1.4-1.1-1.1 0-2.2-.4-2.6-1-.3-.5-1.3-.6-2.2-.3-1.1.4-1.4.3-.9-.5.4-.7.1-1.2-1-1.2-.9 0-3.3-1-5.2-2.2-2-1.2-4.5-2.3-5.6-2.5-6.4-1-9.8-1.1-27.1-1.3-18.6-.1-19.1-.2-19.2-2.2-.1-1.2.6-2.8 1.5-3.6 1.6-1.3 1.6-1.3 0-.8s-1.8-.2-1.8-5.2c0-4.5-.5-6.3-2.1-8.1-1.2-1.2-2.8-2-3.6-1.7-.8.4-1.1.1-.8-.5.4-.6.1-.9-.6-.8-.8.1-2.7-.3-4.2-.9-1.6-.7-3.2-1.2-3.6-1.2-.5 0-2.4-1.1-4.4-2.4-2-1.4-5.2-2.8-7.2-3.2-2.1-.4-3.2-1-2.8-1.7.4-.6 0-.8-.9-.4-.9.3-2.4 0-3.4-.8-1.1-.7-3.8-1.8-6.1-2.5-2.4-.7-4-1.7-3.6-2.3.4-.6-.2-.8-1.5-.5-1.3.4-2 .2-1.9-.5.1-.7-1.5-1.3-3.7-1.4-2.2-.1-4.4-.7-5-1.3-1.8-1.8-4.5-1-6.2 1.9-1 1.7-2.2 2.7-2.8 2.4-.5-.4-.7.1-.3 1 .3.9.2 1.9-.4 2.2-.5.4-.7 1.1-.4 1.6.4.5.1.9-.5.9s-.9.4-.5.9c.3.5.1 1.2-.5 1.6-.6.4-.8 1.1-.5 1.6.4.5.2.9-.4.9-.5 0-1.7 2-2.7 4.5-.9 2.5-2.1 4.5-2.6 4.5s-.3.7.6 1.5c.8.8 1.9 1.5 2.5 1.5.6 0 1.1.4 1.1 1 0 .5 1.2 1 2.8 1 2.5 0 9.1 1.9 13.7 3.9 3.7 1.7 6 2.4 6.8 2.3.4-.1.7.2.7.7 0 .5 1.6 1.2 3.6 1.6 2 .3 6.2 1.8 9.3 3.3 3.1 1.4 6.2 2.5 7 2.3.7-.1 1 .2.6.8-.3.7.2 1.1 1.5 1.1 2.2 0 2.3 0 11.8 5 3.5 1.7 6.6 3 6.9 2.6.3-.3 2.5.6 4.9 1.9 2.4 1.4 4.6 2.5 4.9 2.5h1.6c.5 0 .7.5.3 1.2-.5.8-.2.9.9.5.9-.3 2.3.1 3.2.9.8.8 2 1.2 2.6.8.8-.4.9-.3.5.4s.4 1.4 2.1 1.8c1.5.4 3.5 1.2 4.3 1.9.8.8 3.2 1.6 5.2 2 2.1.4 3.6 1.1 3.3 1.5-.6 1 3.4 2.5 4.2 1.6.4-.3 1.4.1 2.3.9 2.4 2.1.5 8.5-2.5 8.5-1.4 0-1.6.3-.7.8.7.5 1 1.6.7 2.4-.4.9 0 1.8 1 2.2.9.3 1.4 1 1 1.5-.3.5 0 1.3.6 1.6.5.4 1 2.8.9 5.4-.3 9.5-.2 9.9 2.5 9.3 2.7-.5 2.7-.3 2.7-11 0-5.5.4-7.2 1.4-7.2.8 0 1.4-1 1.4-2.5 0-1.4-.4-2.5-.9-2.5-1.2 0-2.3-2.9-1.5-4.1.3-.5 1.8-.2 3.5.6 1.6.9 3.4 1.3 3.9 1 .6-.3 1-.1 1 .4 0 .6.3 1 .8.9.4-.1 1.7.3 2.8 1 1.2.6 2.4.9 2.7.6.3-.4 1.8.3 3.3 1.5 1.5 1.1 3.7 2.1 5 2.1 1.2 0 2.5.4 2.9 1 .3.5 1.3.6 2.2.3 1.2-.5 1.4-.3.8.6-.5 1-.2 1.1 1.2.7 1.3-.4 3 .1 4.7 1.5 1.5 1.2 3 1.9 3.3 1.6.3-.4 1.7 0 3.2.7 1.4.7 5.1 1.9 8.1 2.5 3 .7 6.6 1.6 8 2 1.4.5 5.2 1.6 8.5 2.6 3.3.9 6.7 2.1 7.6 2.5.9.5 2.7.6 4 .3 1.9-.4 2.1-.3.9.6-1.2.8-.9 1 1.5 1 1.7 0 8.2.9 14.5 2.1 6.3 1.2 12.9 2.2 14.5 2.4 1.7.2 3.5.4 4 .5.6.2 2.6.2 4.6.1 2.1-.1 4 .4 4.4 1 .4.6 1.8.9 3.4.5 1.5-.3 4.6-.2 6.8.3s8.4.6 13.9.1c5.4-.4 14.1-.9 19.2-1.1 5-.1 9.2-.6 9.2-1s1.2-.7 2.8-.7c3 .1 7.8-.6 10.2-1.3.8-.3 3.2-1.1 5.3-1.8 2.2-.6 4.9-1.3 6-1.5 4.3-.5 7.7-1.7 7.2-2.5-.3-.5.4-.6 1.5-.3 1.2.3 2.2-.1 2.6-1.1.3-.9 1.7-1.6 3.1-1.6 1.3 0 2.2-.4 1.9-.9-.7-1 2.2-2.4 3.4-1.6.4.3 1-.2 1.4-1 .3-.8 1.1-1.2 1.8-1 .7.3 3.3-1.3 5.7-3.5 2.4-2.2 4.8-4 5.3-4s.6-.5.3-1c-.4-.6.7-1.6 2.3-2.3 1.6-.6 3-1.5 3.1-2 0-.4.3-.7.6-.7.7.1 2.7-2.1 4.2-4.5.6-1.1 1.6-1.9 2.2-1.7.6.1 1.1-.4 1.1-1.2 0-.7.7-1.9 1.5-2.6.9-.7 1.4-1.9 1.1-2.6-.3-.8 0-1.3.6-1.1 1.1.2 1.3-.2 1.7-3.6.1-.9.3-.9 1 .2.6.9 1.1 1 1.5.2.4-.6.4-1.6 0-2.3-.5-.7-.3-.8.6-.3 1 .6 1.2.4.7-.8-.3-.9.3-2.7 1.4-4 1-1.4 1.9-3 1.9-3.5s.7-1.5 1.5-2.2c.8-.7 1.5-2.2 1.5-3.3 0-1.1.6-2.5 1.3-3.1.8-.6 2.6-6.1 4-12.1 3.8-15.2 4.7-30.1 2.8-41.8-.6-3.2-.8-6.4-.4-7.2.3-.8 0-1.5-.7-1.5-.6 0-.9-.4-.5-1 .3-.5.1-1.7-.4-2.7-1.3-2.5-3.8-10.2-4.6-14.1-.4-1.7-1-3.2-1.4-3.2-.8 0-4.5-8-4.2-9.3 0-.4-.3-.7-.7-.7-.5 0-1.4-1.2-2.1-2.6-.6-1.4-2.4-4.2-3.8-6.1-1.5-2-2.8-4.2-2.9-5-.3-2-2.5-4.4-3.5-3.7-.5.3-.9.2-.9-.3 0-.4-1.4-2.2-3-4-1.7-1.8-3-3.7-3-4.4 0-.7-.3-1-.6-.6-.4.3-2.4-1.2-4.4-3.3-2.1-2.2-4.4-4-5.1-4-.7 0-2.2-.8-3.3-1.8-2.7-2.3-14.4-9.2-15.8-9.2-.5 0-2.2-.9-3.8-2-1.5-1.1-3-1.7-3.2-1.4-.3.3-2.3-.2-4.4-1-7.2-2.7-14.4-3.6-28.2-3.4-7.5 0-15.3.3-17.2.5zM530.4 203.6c.3.8.2 1.2-.4.9-.6-.3-1-1-1-1.6 0-1.4.7-1.1 1.4.7zm231.1 6.4c-.3.5-1.2 1-1.8 1-.7 0-.6-.4.3-1 1.9-1.2 2.3-1.2 1.5 0z"/><path d="M699.5 77c-21.5 4.7-35.6 20.2-38 41.6-1.7 14.6 7.2 25.9 20 25.8 11.3-.2 16.8-6.3 20.9-23.1 2.2-8.7 3.3-9.9 7.8-8.4 11.9 3.9 20.6 23.2 17.9 39.7-1.7 10.8-4.8 17.2-11.5 23.9-3.4 3.3-7 6.6-8.1 7.3-3.3 2.1 14.1.7 21.6-1.8 17.5-5.8 30.8-21.5 33.9-40 3-17.8-4.7-40-18-52.4-6.7-6.2-9.5-7.8-17.9-10.8-6.4-2.2-22.4-3.2-28.6-1.8zM229.9 194.9c-7.1 2.3-10.9 7.4-10.9 14.9 0 10.1 12 17.3 21 12.7 2.6-1.3 5-4.2 5-5.9 0-1.2-3-.5-6.5 1.5-6.1 3.7-13.3.5-15.1-6.7-.8-3.3 1.3-9 4.1-10.8 3-2 8.5-2.1 11.1-.1 2.1 1.6 6.4 2 6.4.6 0-1.2-5.8-6.1-7.3-6.1-.7 0-2.1-.2-3.2-.5-1.1-.2-3.2 0-4.6.4zM278.9 196c-.9.5-2 2.1-2.3 3.5-.4 1.4-1.1 2.5-1.6 2.5-1.3 0-1.3 2.7 0 3.2.5.1 1 4.2 1.1 9 .1 7.9.3 8.8 2 8.8s1.9-.8 1.9-8.6c0-7.7.2-8.6 2-9.1 1.1-.3 2-1.2 2-1.9 0-.8-.9-1.4-2-1.4-2.6 0-2.5-1.5.1-3.4 3.5-2.4.6-4.8-3.2-2.6zM326.9 196c-2.5 1.4-3.2 5.6-1.5 8.8 1.3 2.5 1.2 2.9-1 5.5-3.2 3.8-3 7.2.5 10.8 3.7 3.6 7 3.7 11.1.3l3.1-2.7 2.8 2.1c2.1 1.5 3.1 1.8 4 .9.8-.8.3-1.9-2.1-4.4-3.4-3.5-3.4-3.2-.3-10.6.5-1.3.2-1.7-1.4-1.7-1.5 0-2.5.9-3.2 3-1.3 3.5-1.6 3.6-4 1.4-1.8-1.6-1.7-1.7.1-3.3 6.1-5.4-1-14.3-8.1-10.1zm7.1 5.3c0 1.6-2 3.7-3.6 3.7-1.8 0-2.8-3.9-1.4-5.5 1.4-1.7 5-.3 5 1.8zm-.6 11.6l2.8 2.9-2.2 2.2c-2.8 2.8-6.2 2.3-7.4-1.2-.8-2.2-.6-3.2.9-4.8 2.3-2.6 2.6-2.6 5.9.9zM413 198.5c0 2.4-.5 3.5-1.5 3.5-.8 0-1.5.6-1.5 1.4 0 .8.7 1.6 1.5 2 1.2.4 1.5 2.4 1.5 9.1 0 7.8.2 8.5 2 8.5s2-.7 2-8.5c0-6.7.3-8.7 1.5-9.1.8-.4 1.5-1.2 1.5-2s-.7-1.4-1.5-1.4c-1 0-1.5-1.1-1.5-3.5 0-2.8-.4-3.5-2-3.5s-2 .7-2 3.5zM255.4 202.4c-4.3 1.9-6.4 5.3-6.4 10.4 0 3.7.6 5 3.4 7.8 3.8 3.8 7.3 4.3 11.9 2 1.5-.8 2.7-1.1 2.7-.5 0 .5.9.9 2 .9 1.9 0 2-.7 2-10.5s-.1-10.5-2-10.5c-1.1 0-2 .4-2 .9 0 .6-1.6.3-3.5-.5-4.1-1.7-4.2-1.7-8.1 0zm9.1 5.1c6.7 6.6-2.5 16.8-9.3 10.5-3.2-3-3-8.2.4-10.9 3.5-2.7 5.9-2.6 8.9.4zM291.4 202.6c-1.6.8-3.8 2.8-4.7 4.3-4.8 8.1 2.4 18.4 11.6 16.7 4.1-.8 9.1-5.9 6.3-6.4-.9-.2-2.6.4-3.8 1.2-3.5 2.5-7.3 2-9.8-1.2l-2.2-2.7 9.1-.3c8.4-.3 9.1-.4 9.1-2.3 0-3.6-3-8-6.5-9.5-4.3-1.7-5.2-1.7-9.1.2zm9.4 4.7c1.2 1.3 1.9 2.7 1.5 3-.3.4-3.3.7-6.5.7-6.4 0-7.7-1.6-3.6-4.4 3.2-2.2 6.1-2 8.6.7zM377.3 202.5c-1.7.7-3.9 2.7-4.7 4.4-5.1 9.7 4.3 20.4 13.9 15.8 1.8-.9 3.9-2.5 4.5-3.7.9-1.8.8-2-1.3-2-1.4 0-3 .7-3.7 1.5-1.8 2.2-6.6 1.8-9-.7-1.1-1.2-2-2.5-2-3 0-.4 4.1-.8 9-.8 8.5 0 9-.1 9-2.1 0-3.3-3.1-7.7-6.6-9.4-3.9-1.8-5-1.8-9.1 0zm8.5 4.1c3.9 2.7 2.8 4.4-3 4.4-7.3 0-8.7-1.1-5.2-3.9 3.2-2.5 5.2-2.6 8.2-.5zM399.3 202c-2.3.9-3.7 4.5-3.1 7.7.2 1 2.1 2.7 4.3 3.9 2.6 1.3 4 2.7 4 4 0 2.7-4.1 3.1-5.5.5-1.3-2.6-4-2.7-4-.3 0 2.4 4.1 6.2 6.6 6.2 3.8 0 6.4-2.8 6.4-7 0-3.4-.4-4.2-3.2-5.6-4.7-2.4-5.7-3.4-5.1-5 .7-1.8 2.2-1.8 4.4.2 1.7 1.6 3.9 1.2 3.9-.7 0-1.4-3.8-4.9-5.2-4.8-.7 0-2.3.4-3.5.9zM487.3 202.5c-6.6 2.9-8.2 13-2.9 18.4 2.1 2.1 3.4 2.5 7.3 2.4 2.7-.1 6.3-.2 8.1-.2l3.2-.1v-10.5c0-9.8-.1-10.5-2-10.5-1.1 0-2 .5-2 1.1 0 .8-.4.8-1.2.1-2.3-1.8-7.2-2.2-10.5-.7zm9.1 4.6c5.2 4.1 2.3 12.9-4.3 12.9-3.3 0-7.1-3.9-7.1-7.2 0-2.9 1.9-5.8 4.3-6.8 3.3-1.3 4.2-1.2 7.1 1.1zM514.6 201.7c-.4.4-2.2.6-4.2.5l-3.5-.3.3 10.8c.3 10 .4 10.8 2.3 10.8 1.8 0 2-.8 2.3-7.5.3-8.3 1.2-10 5.3-10 3.8 0 4.9 2.4 4.9 10.9 0 6.4.2 7.1 2 7.1s2-.7 2-8.4c0-4.6-.3-9.2-.6-10.1-1.2-3-8.8-5.7-10.8-3.8zM361 212.7c0 9.6.1 10.3 2 10.3 1.8 0 2-.7 2-6.9 0-7.7.6-10.1 2.5-10.1 1 0 2.5-2 2.5-3.5 0-.2-2-.3-4.5-.3l-4.5.1v10.4zM425.6 204.1c-9.7 7.6.3 24.1 11.3 18.6 1.7-.9 3.1-1.1 3.1-.6 0 .5.9.9 2 .9 1.9 0 2-.7 2-10.5s-.1-10.5-2-10.5c-1.1 0-2 .5-2 1 0 .7-.6.7-1.9 0-3.3-1.7-9.6-1.2-12.5 1.1zm11.9 3.4c3 3 3.2 6.4.4 9.9-3.5 4.4-9.8 3.1-11.8-2.4-2.6-7.5 5.9-13.1 11.4-7.5zM448 209.5c0 4.1.5 8.5 1.1 9.9 1.5 3.1 6 5.1 9.6 4.1 1.6-.5 3.8-.7 5.1-.6 2.2.2 2.2 0 2.2-10.3 0-9.9-.1-10.6-2-10.6-1.8 0-2 .7-2 7.3 0 7.7-1.5 10.7-5.3 10.7-3.4 0-4.7-2.9-4.7-10.6 0-6.7-.2-7.4-2-7.4s-2 .7-2 7.5zM471 212.6c0 9.7.1 10.4 2 10.4 1.8 0 2-.7 2-7.9 0-7.1.2-8 2-8.6 1.1-.3 2-1.4 2-2.4 0-1.5-.8-1.8-4-1.8h-4v10.3z"/></svg>