<svg width="60" height="60" xmlns="http://www.w3.org/2000/svg"><path fill="#fff" d="M23.518 23.955v-14.3c0-2.001.547-3.627 1.64-4.877 1.095-1.282 2.658-1.923 4.69-1.923 2.031 0 3.594.641 4.688 1.923 1.126 1.25 1.688 2.876 1.688 4.876v14.301h14.114c2.063 0 3.689.563 4.876 1.688 1.22 1.095 1.83 2.642 1.83 4.642 0 2.032-.61 3.61-1.83 4.736-1.187 1.126-2.813 1.688-4.876 1.688H36.224v14.254c0 2.032-.562 3.673-1.688 4.924-1.125 1.25-2.688 1.875-4.688 1.875-2.001 0-3.564-.625-4.69-1.875-1.093-1.25-1.64-2.892-1.64-4.924V36.71H9.404c-2 0-3.626-.61-4.876-1.828-1.22-1.25-1.83-2.782-1.83-4.596 0-2 .595-3.547 1.783-4.642 1.219-1.125 2.86-1.688 4.923-1.688h14.114z"/></svg>