<svg width="24" height="24" xmlns="http://www.w3.org/2000/svg" fill-rule="evenodd" clip-rule="evenodd"><path d="M12 20a1.5 1.5 0 1 1-.001 3.001A1.5 1.5 0 0 1 12 20zm-3.659-3.254A5.973 5.973 0 0 1 12 15.5c1.376 0 2.645.464 3.657 1.245l-.572.821c-.85-.667-1.921-1.066-3.085-1.066s-2.237.399-3.087 1.068l-.572-.822zm-2.859-4.105A10.943 10.943 0 0 1 12 10.5c2.437 0 4.691.794 6.515 2.139l-.572.821A9.945 9.945 0 0 0 12 11.5a9.947 9.947 0 0 0-5.946 1.962l-.572-.821zM2.624 8.537A15.923 15.923 0 0 1 12 5.5c3.499 0 6.737 1.125 9.371 3.034l-.571.821A14.92 14.92 0 0 0 12 6.5c-3.288 0-6.331 1.06-8.804 2.858l-.572-.821zM0 4.769A20.895 20.895 0 0 1 12 1a20.89 20.89 0 0 1 11.994 3.765l-.571.82A19.904 19.904 0 0 0 12 2 19.902 19.902 0 0 0 .571 5.589L0 4.769z"/></svg>